<?xml version="1.0" standalone="no"?>
<!DOCTYPE svg PUBLIC "-//W3C//DTD SVG 20010904//EN"
 "http://www.w3.org/TR/2001/REC-SVG-20010904/DTD/svg10.dtd">
<svg version="1.0" xmlns="http://www.w3.org/2000/svg"
 width="768.000000pt" height="768.000000pt" viewBox="0 0 768.000000 768.000000"
 preserveAspectRatio="xMidYMid meet">

<g transform="translate(0.000000,768.000000) scale(0.100000,-0.100000)"
fill="#000000" stroke="none">
<path d="M3565 7464 c-27 -2 -111 -13 -185 -24 -430 -65 -754 -187 -1042 -391
-53 -38 -100 -73 -103 -79 -3 -5 -18 -18 -33 -28 l-27 -20 0 122 c0 118 -1
123 -34 188 -62 122 -176 228 -245 228 -86 0 -174 -125 -208 -297 -10 -49 -12
-52 -32 -40 -35 20 -260 16 -326 -7 -324 -110 -505 -375 -606 -886 -19 -98
-51 -359 -59 -485 -23 -368 -74 -538 -199 -660 -82 -80 -151 -109 -243 -102
l-63 5 18 -30 c36 -64 131 -116 209 -117 46 -1 111 21 158 53 17 11 25 14 18
5 -18 -23 -108 -226 -133 -299 -72 -218 -73 -416 -5 -591 63 -159 200 -290
329 -314 l38 -8 -37 48 c-72 95 -102 179 -110 312 l-5 98 15 -52 c59 -210 265
-429 484 -519 79 -32 223 -56 286 -49 73 9 150 33 165 50 10 12 10 15 -2 15
-26 0 -153 67 -194 103 -55 48 -108 128 -139 210 l-25 67 53 -29 c113 -62 230
-66 344 -10 57 27 64 33 43 36 -155 21 -258 106 -308 253 -61 176 -59 552 3
810 8 36 24 97 36 135 11 39 28 98 37 133 9 34 20 62 25 62 5 0 6 -10 2 -22
-14 -43 -17 -212 -5 -307 27 -211 82 -349 182 -456 33 -36 64 -65 68 -65 4 0
-1 25 -11 56 -16 47 -49 304 -49 377 0 31 9 15 14 -26 11 -80 91 -242 169
-340 28 -35 32 -47 26 -72 -21 -93 -1 -240 45 -320 19 -32 24 -60 29 -145 6
-110 23 -198 56 -289 61 -164 200 -297 341 -326 l35 -8 -37 41 c-21 23 -46 59
-57 81 -28 54 -61 177 -61 228 l0 42 51 -50 c173 -168 445 -296 809 -379 126
-29 131 -31 95 -40 -39 -9 -94 -35 -125 -58 -14 -11 -61 -39 -104 -63 -101
-56 -183 -131 -247 -228 -68 -102 -269 -517 -429 -883 -42 -97 -79 -150 -212
-303 -95 -110 -112 -147 -118 -275 -4 -85 -10 -112 -28 -140 -12 -19 -22 -47
-22 -62 0 -23 -7 -29 -56 -47 -77 -29 -108 -46 -149 -82 -49 -44 -48 -81 6
-147 53 -65 81 -76 174 -69 63 5 75 3 75 -10 0 -8 14 -28 31 -45 29 -29 33
-30 94 -26 45 4 80 15 121 37 32 17 59 29 61 28 2 -2 -10 -48 -27 -102 -27
-93 -28 -100 -13 -118 23 -25 167 -95 228 -111 38 -9 51 -17 53 -33 3 -20 38
-40 113 -63 l36 -11 12 -122 c11 -104 22 -167 68 -379 4 -21 12 -28 29 -28 21
0 22 3 13 33 -32 110 -88 461 -76 474 4 3 33 0 66 -6 34 -7 113 -14 176 -16
80 -3 120 -8 129 -18 17 -17 115 -34 271 -47 66 -5 126 -10 133 -10 10 0 12
-43 10 -205 l-3 -205 23 0 22 0 0 205 0 205 64 0 c35 0 77 3 93 6 l29 6 27
-164 c41 -242 45 -258 68 -258 10 0 19 3 19 6 0 3 -13 76 -29 162 -16 86 -32
182 -35 213 l-7 56 163 6 c203 9 332 23 372 42 23 11 218 55 244 55 1 0 0 -28
-3 -62 -27 -304 -37 -408 -42 -440 -5 -34 -3 -38 15 -38 11 0 23 8 26 18 10
30 46 403 46 473 l0 66 86 28 c61 20 88 34 92 47 2 10 39 36 84 60 45 24 101
61 125 82 37 33 44 44 40 66 -5 22 -93 223 -142 322 l-13 27 34 -16 c25 -12
38 -29 55 -71 13 -31 41 -75 64 -99 37 -38 47 -43 85 -43 39 0 49 -6 100 -54
132 -126 260 -140 260 -28 l0 39 88 -15 c48 -7 117 -12 154 -10 67 4 68 4 118
58 56 60 64 97 30 140 -11 14 -20 30 -20 36 0 29 -99 102 -174 130 -62 23 -77
33 -75 49 3 46 -4 59 -58 116 l-57 60 -1 92 c0 112 -21 162 -116 277 -125 153
-181 256 -338 623 -82 190 -170 382 -221 477 -66 123 -208 242 -325 271 -28 7
-59 21 -70 30 -21 19 -211 103 -258 114 -18 5 -35 2 -51 -9 -23 -15 -25 -14
-31 5 -4 11 -5 21 -3 22 1 1 71 24 153 52 259 85 493 215 632 351 35 34 63 60
63 59 0 -2 -11 -42 -25 -89 -38 -132 -106 -257 -183 -338 -31 -32 -33 -38 -18
-44 27 -10 144 41 218 96 109 80 203 225 263 407 26 81 28 83 63 88 111 16
207 69 292 161 74 80 118 172 138 287 11 66 24 104 44 133 130 194 239 556
254 849 4 69 10 122 14 118 7 -9 86 -214 118 -308 32 -93 59 -201 77 -308 22
-124 17 -404 -9 -512 -72 -299 -219 -494 -377 -499 -27 0 -49 -4 -49 -8 0 -3
20 -14 45 -23 33 -13 64 -16 122 -13 97 6 164 38 240 113 55 56 62 58 39 9 -8
-16 -33 -74 -57 -129 -95 -219 -193 -319 -334 -340 l-50 -7 55 -28 c292 -148
712 4 956 345 55 78 116 214 140 314 9 38 20 69 23 67 3 -2 3 -66 -1 -143 -9
-185 -36 -277 -113 -377 -41 -54 -31 -58 53 -16 74 37 175 141 225 232 159
284 139 627 -59 1020 l-36 72 31 -32 c91 -90 302 -97 419 -12 32 23 82 91 82
112 0 2 -39 3 -88 3 -78 0 -94 3 -153 32 -162 80 -248 265 -283 611 -41 396
-49 463 -66 547 -47 226 -139 448 -237 570 -140 173 -365 277 -565 262 l-78
-6 0 97 c0 114 -25 220 -61 259 -22 23 -29 25 -81 20 -87 -8 -173 -61 -289
-176 -117 -116 -149 -174 -158 -279 l-6 -74 -68 61 c-200 176 -502 331 -812
416 -237 65 -329 76 -630 80 -148 1 -292 1 -320 -1z m655 -68 c418 -65 820
-243 1096 -484 273 -238 465 -623 528 -1059 21 -147 21 -458 0 -602 -35 -245
-117 -496 -211 -649 l-20 -33 -17 53 c-21 66 -79 153 -117 175 l-28 17 38 70
c131 239 223 558 240 836 9 140 5 310 -8 310 -3 0 -7 -66 -8 -148 -3 -252 -58
-514 -162 -775 -63 -157 -148 -304 -279 -481 -66 -89 -80 -102 -89 -88 -7 13
-12 -24 -16 -143 -16 -447 -168 -805 -400 -941 -58 -34 -86 -44 -57 -21 47 37
128 200 163 327 15 52 36 156 47 230 53 345 71 432 140 675 49 174 83 325 106
475 28 174 25 542 -4 707 -50 275 -157 560 -288 760 -57 89 -258 303 -284 303
-7 0 17 -28 54 -62 167 -153 306 -394 411 -713 128 -389 133 -832 14 -1300
-17 -66 -32 -121 -33 -123 -2 -1 -6 10 -9 25 -3 15 -15 71 -27 123 -11 52 -32
149 -45 215 -60 298 -103 461 -187 710 -100 296 -205 510 -338 693 -46 63 -47
45 -2 -29 146 -242 259 -505 361 -843 55 -179 136 -524 127 -534 -2 -1 -64 66
-137 149 -323 368 -489 571 -470 577 18 6 122 -28 190 -63 79 -39 163 -100
251 -181 52 -48 60 -52 40 -24 -45 66 -165 177 -235 217 -79 46 -189 88 -256
98 -45 7 -47 9 -96 93 -70 119 -96 174 -127 266 -22 68 -25 89 -20 160 3 44 1
101 -3 126 -8 39 -10 27 -16 -85 -13 -265 -100 -588 -258 -956 -44 -102 -54
-119 -59 -98 -19 68 -32 300 -28 469 4 174 3 182 -10 130 -10 -39 -15 -125
-16 -300 -1 -228 1 -251 22 -324 12 -43 20 -81 17 -85 -4 -3 -41 12 -83 34
-92 46 -174 125 -251 240 -52 78 -54 79 -47 40 4 -22 24 -90 45 -152 l38 -112
-26 20 c-186 145 -296 338 -336 589 -20 125 -19 224 4 340 11 52 18 96 16 98
-2 2 -10 -18 -18 -45 -67 -213 -81 -792 -23 -958 7 -19 6 -19 -6 -1 -7 10 -24
32 -37 48 -48 59 -122 194 -161 294 -44 114 -48 139 -25 130 25 -9 17 10 -9
22 -30 13 -34 37 -42 227 -8 182 7 283 67 460 66 195 166 378 262 483 22 23
38 45 35 48 -9 9 -115 -113 -168 -193 -99 -152 -176 -338 -215 -523 -12 -58
-27 -96 -45 -120 -38 -48 -138 -209 -189 -302 -40 -73 -46 -79 -119 -119 -52
-29 -102 -67 -154 -121 -94 -96 -103 -124 -13 -40 51 48 176 132 196 132 2 0
-39 -89 -93 -197 -164 -333 -241 -551 -270 -761 -14 -103 -16 -102 -43 38
-108 548 -21 1134 246 1660 26 52 60 115 75 139 42 69 7 36 -41 -38 -108 -167
-218 -425 -275 -648 -128 -497 -118 -930 34 -1388 24 -71 42 -131 40 -133 -1
-2 -19 8 -41 21 -169 108 -292 289 -347 512 -16 66 -35 234 -37 323 l-1 57
-11 -40 c-6 -23 -11 -154 -11 -310 -1 -227 2 -280 17 -333 20 -76 21 -77 4
-63 -24 19 -96 184 -117 265 -31 122 -43 248 -37 381 25 519 215 1050 507
1414 333 416 806 659 1430 735 69 9 139 18 155 20 69 10 544 -3 635 -18z
m-2284 -2 c51 -24 122 -109 163 -194 31 -65 36 -87 40 -163 4 -115 -13 -159
-98 -257 -69 -80 -60 -76 -169 -72 -47 2 -50 4 -75 50 -61 112 -84 301 -52
427 31 120 97 225 142 225 8 0 30 -7 49 -16z m3979 -38 c8 -19 19 -73 24 -120
18 -154 -14 -320 -81 -431 -52 -86 -63 -94 -111 -83 -23 5 -64 7 -90 3 l-48
-6 7 38 c6 35 21 92 40 153 7 23 6 24 -9 11 -22 -17 -61 -144 -54 -176 6 -35
-19 -55 -37 -29 -8 10 -32 41 -54 68 -70 84 -80 186 -30 287 45 92 188 233
287 282 42 21 88 37 108 37 29 0 36 -5 48 -34z m-4274 -276 l36 -10 6 -78 c7
-76 33 -175 61 -229 l14 -28 -107 0 c-107 0 -108 0 -194 -43 -98 -48 -208
-148 -270 -242 -68 -104 -59 -138 45 -189 69 -34 143 -51 220 -51 27 0 48 -3
46 -7 -1 -5 -33 -69 -70 -143 -36 -74 -75 -162 -86 -195 -39 -115 -92 -307
-97 -349 -6 -51 1 -31 40 104 15 52 47 147 72 210 43 109 149 326 176 361 8
10 36 18 79 23 l68 7 -21 -53 c-78 -194 -134 -389 -168 -588 -11 -66 -33 -147
-51 -190 -44 -106 -99 -273 -116 -355 -49 -233 -59 -620 -19 -761 10 -37 -47
92 -61 136 -53 167 -80 406 -70 603 3 72 4 129 2 126 -14 -13 -27 -161 -27
-294 -1 -241 43 -443 132 -615 79 -152 216 -280 301 -280 17 0 19 -3 10 -12
-7 -7 -46 -11 -99 -11 -121 0 -188 26 -265 104 l-58 57 6 -41 c26 -185 140
-372 268 -438 63 -32 65 -34 39 -40 -118 -27 -303 15 -450 102 -67 40 -180
143 -227 208 -99 137 -155 306 -157 476 -1 102 -9 89 -30 -45 -19 -128 -17
-332 5 -405 20 -66 53 -136 70 -147 6 -4 8 -9 6 -12 -12 -11 -117 74 -156 126
-90 123 -127 242 -128 408 0 164 20 238 150 553 41 99 74 182 74 185 0 3 -16
-13 -35 -36 -43 -49 -128 -92 -201 -99 -45 -5 -62 -1 -110 22 l-57 28 73 18
c130 33 231 120 295 253 57 121 76 225 110 601 34 382 98 650 207 875 55 112
70 133 147 211 139 139 269 198 441 198 52 1 111 -4 131 -9z m4587 -75 c87
-21 158 -56 252 -126 211 -156 330 -451 385 -949 52 -480 81 -609 165 -740 68
-106 192 -184 314 -199 l61 -7 -55 -32 c-93 -54 -219 -57 -322 -8 -66 31 -151
118 -188 193 -13 26 -25 43 -27 37 -3 -10 22 -73 122 -299 114 -258 148 -395
147 -590 0 -90 -5 -140 -21 -200 -39 -148 -112 -272 -200 -343 l-40 -32 24 52
c47 103 58 171 52 318 -6 149 -55 501 -72 518 -11 12 -13 -6 -4 -53 5 -28 10
-93 10 -145 1 -383 -197 -713 -526 -875 -149 -73 -284 -97 -425 -75 l-82 13
54 29 c163 89 275 295 393 723 64 235 81 383 77 668 -3 152 -18 114 -19 -45 0
-271 -71 -604 -159 -756 -38 -65 -134 -159 -188 -182 -24 -11 -66 -23 -93 -26
l-48 -6 43 22 c61 32 152 136 195 224 84 173 118 334 118 561 -1 260 -43 438
-193 810 -57 141 -66 172 -72 250 -12 159 -58 390 -101 513 -3 8 4 6 21 -5 14
-9 53 -24 86 -33 56 -15 62 -20 87 -66 71 -130 157 -367 203 -556 12 -51 24
-85 26 -75 3 16 -2 42 -44 217 -29 119 -76 254 -124 356 l-47 101 81 7 c96 8
165 24 260 60 86 33 96 41 96 79 0 78 -175 281 -296 345 -68 35 -167 62 -231
62 l-43 0 39 78 c21 42 44 100 51 129 11 47 15 52 48 61 55 15 139 13 210 -3z
m-4452 -326 l32 -10 -29 -29 c-16 -16 -29 -39 -29 -53 0 -21 -6 -26 -37 -32
-58 -10 -128 -44 -155 -72 -12 -14 -18 -24 -13 -21 6 2 35 16 65 31 67 32 140
46 140 26 0 -7 11 -25 25 -39 l24 -26 -46 -89 c-25 -50 -47 -91 -49 -93 -1 -2
-48 -8 -105 -13 -143 -12 -263 2 -345 40 -80 37 -82 55 -18 140 151 201 364
296 540 240z m4239 -3 c129 -27 267 -132 354 -265 22 -35 41 -68 41 -72 0 -24
-145 -72 -272 -90 -111 -16 -204 -3 -296 42 -55 27 -66 37 -83 76 -10 24 -19
46 -19 47 0 1 13 17 30 36 16 18 33 48 36 67 3 18 12 33 19 33 22 0 127 -39
173 -65 57 -32 62 -31 28 4 -36 38 -109 69 -169 73 -45 3 -46 4 -57 47 -12 50
-9 55 40 69 49 14 105 13 175 -2z m-315 -2 c24 -5 36 -15 46 -40 26 -62 12
-154 -23 -154 -11 0 -30 22 -50 58 -18 31 -42 72 -54 89 l-21 33 24 9 c29 12
38 13 78 5z m-3773 -27 c-9 -25 -99 -147 -107 -147 -17 0 -32 42 -26 75 10 52
47 85 97 85 29 0 40 -4 36 -13z m2139 -503 c6 -33 79 -187 119 -251 l26 -43
-33 0 c-43 0 -99 -16 -123 -35 -18 -13 -10 -14 81 -8 l101 6 71 -95 c133 -176
533 -620 595 -661 16 -10 27 -29 31 -54 3 -21 13 -64 20 -95 l14 -57 -33 -38
-32 -37 -13 54 c-7 30 -24 78 -39 105 -14 28 -27 53 -29 57 -2 4 14 16 35 28
l38 21 -47 -5 -46 -5 -80 79 c-60 60 -97 88 -153 115 -194 92 -390 65 -523
-70 -47 -48 -91 -114 -81 -123 2 -2 24 13 49 32 129 99 374 103 548 9 146 -78
241 -241 241 -413 0 -76 -17 -136 -50 -172 -9 -10 -14 -21 -11 -24 7 -7 100
111 127 161 11 22 24 55 27 75 4 19 22 55 42 79 l35 43 24 -82 24 -83 -25 -86
c-44 -154 -82 -352 -102 -529 -8 -77 -40 -129 -139 -227 -93 -91 -214 -171
-378 -250 -234 -112 -465 -173 -738 -196 -123 -10 -166 -9 -289 5 -273 30
-536 105 -749 211 -219 111 -360 236 -434 385 l-32 65 -6 215 c-6 206 -8 219
-38 308 -33 99 -37 149 -20 249 l11 64 30 -48 c17 -27 37 -75 45 -108 16 -71
37 -108 100 -181 53 -61 67 -65 29 -7 -42 63 -52 133 -33 228 34 166 123 292
251 355 64 32 77 35 165 35 86 0 102 -3 156 -29 33 -17 82 -52 109 -80 39 -40
47 -45 41 -26 -40 138 -153 238 -294 261 -60 10 -99 6 -173 -18 -46 -14 -48
-14 -80 10 -66 48 -75 44 -34 -16 l24 -35 -40 -28 c-22 -15 -59 -49 -82 -75
-41 -46 -43 -46 -70 -32 -15 8 -37 13 -48 11 -19 -3 -18 -5 12 -35 l33 -32
-27 -63 c-15 -35 -30 -83 -34 -107 l-7 -44 -32 51 -31 50 19 68 c20 72 22 77
64 189 53 138 108 262 180 407 105 209 115 223 167 236 68 17 136 24 177 17
35 -6 37 -8 55 -73 25 -87 102 -253 154 -328 40 -59 158 -182 166 -173 2 2 -5
38 -15 79 -25 94 -39 240 -38 395 l1 120 13 -60 c45 -215 212 -452 378 -536
21 -11 41 -19 43 -17 7 8 -45 153 -54 151 -6 -1 -7 7 -4 19 5 20 6 20 26 -8
46 -63 88 -102 143 -132 62 -32 182 -76 190 -68 3 2 0 13 -6 24 -18 34 -13 56
33 154 50 108 122 288 160 403 38 113 96 346 96 386 0 40 18 28 26 -17z
m-1357 -164 c5 -52 12 -102 15 -110 5 -13 -4 -15 -66 -12 -40 2 -92 -1 -116
-6 l-42 -10 32 57 c39 68 125 208 147 237 16 21 16 21 19 -20 1 -22 6 -84 11
-136z m2780 -1265 c90 -103 102 -291 29 -444 -39 -83 -141 -187 -220 -225 -62
-30 -138 -46 -138 -28 0 6 9 64 20 129 11 65 20 165 20 221 l0 104 61 74 c34
41 65 74 69 74 11 0 74 -72 106 -120 15 -22 29 -38 31 -36 10 10 -54 120 -89
151 l-37 34 41 60 c46 68 52 68 107 6z m-3452 -305 c23 -12 44 -32 47 -44 3
-12 6 -83 6 -158 0 -159 -2 -161 -73 -98 -79 70 -127 181 -127 296 0 96 4 100
59 61 25 -19 65 -44 88 -57z m27 -375 c20 -9 36 -21 36 -29 0 -7 16 -45 35
-82 26 -53 35 -82 35 -122 0 -96 55 -286 89 -306 6 -4 11 -12 11 -17 0 -16
-116 68 -150 108 -74 89 -137 267 -147 417 l-6 90 31 -22 c17 -13 47 -29 66
-37z m1919 -693 l17 -37 -32 -28 c-146 -125 -396 -257 -485 -257 -50 0 -96 29
-129 82 -31 49 -43 120 -24 143 22 26 30 16 31 -37 1 -69 15 -38 24 54 l8 68
81 -6 c84 -6 288 14 401 40 86 20 88 19 108 -22z m-637 -24 c4 -7 2 -14 -6
-16 -8 -3 -24 -15 -37 -28 -47 -47 -15 -175 62 -243 32 -28 33 -30 14 -36 -12
-4 -57 -2 -101 5 -44 7 -106 10 -138 7 -55 -5 -60 -3 -75 20 -21 31 -31 158
-16 195 13 34 43 54 128 83 74 26 157 32 169 13z m879 -40 c58 -29 105 -58
105 -66 0 -20 -49 -113 -82 -155 -30 -37 -122 -113 -166 -136 -21 -11 -27 -10
-47 9 -57 54 -253 91 -373 70 -37 -6 -75 -13 -84 -16 -10 -3 -18 -1 -18 3 0 5
33 22 73 39 120 50 283 152 366 231 47 44 85 72 98 73 13 0 70 -24 128 -52z
m-1217 -147 c0 -43 7 -82 17 -101 9 -18 15 -33 13 -34 -2 -1 -22 -8 -46 -15
-68 -19 -77 -43 -77 -191 0 -143 12 -188 55 -213 l29 -18 -53 -82 c-75 -115
-75 -117 -22 -163 50 -44 199 -139 243 -156 59 -22 71 -5 122 174 17 57 44
157 60 222 17 66 32 121 34 122 9 9 77 -10 77 -22 0 -46 33 -332 46 -398 19
-100 28 -116 62 -116 30 0 221 80 296 124 71 42 76 61 37 154 -18 42 -35 83
-38 90 -3 8 4 12 21 12 14 0 34 8 44 18 23 23 110 220 124 283 10 44 16 52 63
78 87 49 169 133 212 216 29 57 43 75 59 75 31 0 153 -63 199 -103 l38 -33
-36 -23 c-69 -42 -165 -176 -221 -309 -49 -116 -70 -219 -71 -349 0 -62 -1
-113 -2 -113 -9 0 -73 157 -83 205 -13 58 -30 95 -30 64 0 -61 64 -233 111
-300 30 -43 129 -357 115 -368 -43 -34 -204 -80 -371 -107 -182 -28 -476 -13
-799 41 -86 15 -224 29 -323 34 -158 8 -177 11 -227 35 -89 44 -89 52 -17 341
54 217 85 347 125 520 8 33 17 87 20 120 6 59 6 59 -9 28 -13 -29 -45 -140
-59 -203 -2 -14 -3 55 -2 153 4 175 4 178 31 218 37 52 184 158 221 159 6 0
11 -28 12 -69z m1671 -151 c51 -72 135 -246 264 -546 52 -121 121 -272 153
-335 33 -63 61 -118 63 -123 4 -11 -111 75 -151 112 -16 14 -28 21 -28 15 0
-7 42 -49 92 -95 261 -235 306 -295 315 -422 3 -39 0 -90 -5 -114 -6 -24 -6
-44 -1 -48 5 -3 9 2 9 10 0 27 16 18 64 -35 75 -83 61 -130 -72 -245 -85 -73
-187 -128 -274 -146 -77 -16 -98 -5 -141 77 -31 58 -33 66 -16 62 48 -13 10
17 -80 62 -114 58 -158 102 -219 219 -120 230 -321 769 -336 897 -19 170 60
429 179 591 40 53 117 124 135 124 4 0 26 -27 49 -60z m-1950 -55 c-4 -33 -8
-123 -8 -200 -1 -131 -4 -152 -51 -350 -57 -238 -76 -317 -97 -394 -14 -52
-14 -55 11 -102 l25 -50 -64 -122 c-60 -115 -205 -443 -205 -465 0 -5 -6 -15
-14 -21 -20 -17 -77 0 -150 44 -33 19 -61 34 -63 31 -11 -11 96 -88 143 -103
30 -9 54 -19 54 -22 0 -3 -10 -35 -23 -71 l-23 -65 -38 2 c-85 6 -234 122
-285 222 -20 37 -21 47 -10 79 7 20 19 47 27 60 l15 23 39 -37 c21 -21 38 -33
38 -28 0 6 -9 19 -19 28 -11 10 -29 41 -41 69 -18 41 -21 64 -17 113 7 95 52
165 219 341 40 43 62 82 122 220 99 226 247 547 304 658 50 98 113 207 117
203 1 -2 -1 -30 -6 -63z m569 30 c5 -5 7 -29 4 -52 -4 -39 -7 -43 -31 -43 -37
0 -129 -28 -137 -42 -5 -7 1 -9 17 -5 13 3 52 9 87 13 l62 7 0 -61 0 -60 -120
-61 c-66 -34 -131 -61 -145 -61 -13 0 -36 11 -51 23 -26 23 -27 27 -32 153 -5
152 2 167 83 190 57 15 249 15 263 -1z m558 1 c154 -27 183 -52 160 -131 -29
-94 -100 -247 -123 -262 -20 -13 -28 -13 -75 2 -86 29 -181 80 -231 127 l-47
43 13 50 c14 50 14 50 51 47 21 -2 67 -14 102 -26 35 -13 64 -20 64 -15 0 15
-85 58 -139 71 -52 12 -53 12 -47 42 8 38 16 46 58 56 53 13 127 11 214 -4z
m-317 -11 c12 -12 -35 -216 -52 -228 -19 -13 -119 2 -139 20 -16 14 -18 27
-13 92 8 104 12 119 33 125 29 8 161 1 171 -9z m-199 -287 c0 -31 -119 -433
-135 -455 -11 -15 -18 -13 -81 21 -97 54 -194 125 -194 143 0 37 112 193 138
193 10 0 56 19 103 43 l87 42 -35 -69 c-19 -37 -32 -70 -29 -73 5 -6 66 97 66
113 0 6 9 23 21 38 26 33 59 35 59 4z m208 8 c20 -10 31 -27 40 -63 17 -63 45
-133 55 -133 10 0 10 -1 -18 68 -35 85 -33 99 6 71 17 -12 61 -34 97 -49 44
-19 74 -39 88 -59 32 -46 77 -158 71 -175 -9 -23 -251 -139 -294 -140 -32 -1
-37 3 -44 27 -9 34 -36 259 -45 380 -7 94 -5 98 44 73z m912 -870 c0 -6 -7 -2
-15 8 -8 11 -15 25 -15 30 0 6 7 2 15 -8 8 -11 15 -25 15 -30z m-1767 19 c20
-8 50 -15 67 -15 17 0 33 -6 36 -13 3 -8 -8 -47 -24 -88 -67 -168 -196 -651
-262 -981 -6 -32 -14 -58 -18 -58 -23 0 -99 27 -174 62 -74 35 -88 45 -88 64
0 33 89 297 167 494 57 146 246 550 257 550 2 0 20 -7 39 -15z m1761 -83 c60
-105 69 -123 144 -282 46 -96 73 -139 117 -185 31 -33 68 -82 81 -109 43 -82
134 -299 134 -317 0 -10 -15 -29 -32 -42 -39 -29 -152 -87 -170 -87 -8 0 -30
49 -53 118 -116 345 -236 630 -393 934 -2 3 20 14 47 23 28 9 53 21 56 26 12
18 21 8 69 -79z m-1352 40 c53 -10 99 -20 102 -23 3 -3 -3 -48 -14 -100 -31
-154 -53 -299 -91 -601 -5 -42 -20 -175 -34 -294 -16 -143 -29 -220 -37 -226
-20 -14 -234 0 -323 21 -105 26 -175 56 -175 77 0 45 96 462 162 699 51 186
99 337 129 403 l28 62 78 -1 c43 0 122 -8 175 -17z m1190 -83 c81 -140 210
-454 329 -805 79 -233 79 -221 -1 -251 -116 -44 -350 -94 -350 -75 0 5 -9 51
-20 103 -11 52 -32 148 -45 214 -49 244 -130 598 -165 720 -11 39 -23 80 -26
93 -5 18 -2 22 17 23 13 0 65 11 114 24 50 12 94 22 100 21 5 -2 27 -32 47
-67z m-892 46 c63 -9 134 -18 157 -21 38 -5 43 -8 47 -37 14 -89 64 -874 68
-1082 l3 -130 -55 -9 c-61 -10 -371 6 -477 25 -69 12 -66 8 -64 99 3 95 76
712 111 935 5 33 14 96 20 140 7 44 14 83 17 88 6 11 45 9 173 -8z m621 -160
c17 -71 35 -146 39 -165 4 -19 24 -107 43 -195 20 -88 49 -225 66 -305 16 -80
39 -191 51 -248 28 -133 26 -145 -25 -154 -55 -10 -473 -33 -479 -27 -3 3 -12
126 -21 275 -20 360 -44 674 -61 814 -8 63 -14 119 -14 125 0 8 56 11 185 11
l184 -1 32 -130z m-2086 -381 c51 -74 114 -128 196 -167 37 -17 68 -34 68 -37
2 -15 -101 -45 -153 -45 -79 0 -92 18 -48 71 38 45 41 59 10 43 -62 -34 -229
-50 -262 -26 -40 29 1 62 149 120 6 2 8 7 5 9 -3 3 -50 -9 -104 -27 -55 -18
-106 -31 -113 -28 -39 15 9 71 99 113 92 44 107 41 153 -26z m3660 31 c57 -21
160 -83 152 -91 -1 -1 -29 6 -61 17 -32 11 -66 18 -75 17 -9 -2 7 -12 36 -22
57 -19 127 -65 142 -95 8 -15 6 -25 -10 -45 l-21 -26 -46 41 c-58 50 -212 132
-212 111 0 -4 34 -24 75 -45 41 -21 93 -56 117 -77 36 -32 41 -41 32 -57 -25
-41 -248 -18 -355 37 -63 32 -63 30 -17 -34 32 -45 38 -103 11 -113 -27 -10
-213 100 -213 127 0 5 23 16 51 24 76 23 246 154 294 226 11 16 23 30 27 30 4
0 37 -11 73 -25z"/>
<path d="M1902 6938 c-26 -32 -46 -188 -22 -173 6 3 10 19 10 35 0 40 22 130
32 130 4 0 8 -39 8 -86 0 -54 4 -83 10 -79 14 9 13 158 -2 173 -15 15 -23 15
-36 0z"/>
<path d="M4143 5342 c-52 -19 -123 -61 -123 -74 0 -4 22 4 48 17 26 13 68 29
92 34 55 13 182 14 233 2 20 -5 37 -5 37 0 0 14 -72 31 -155 35 -61 3 -92 0
-132 -14z"/>
<path d="M2578 5339 c-21 -6 -38 -14 -38 -17 0 -4 40 -5 89 -4 102 4 158 -10
235 -58 25 -16 46 -26 46 -21 0 14 -74 69 -116 87 -47 20 -167 27 -216 13z"/>
<path d="M2623 5079 c-119 -58 -189 -225 -181 -424 6 -123 31 -194 94 -264 56
-62 96 -87 155 -96 64 -9 119 8 173 56 83 74 126 188 126 337 0 190 -66 338
-174 388 -65 30 -136 31 -193 3z m232 -121 c15 -14 28 -38 32 -60 5 -32 1 -41
-26 -69 -26 -25 -37 -30 -59 -24 -38 9 -52 32 -52 82 0 33 6 50 25 68 30 31
47 31 80 3z m-231 -426 c8 -15 28 -40 45 -56 24 -23 40 -29 74 -29 58 0 100
30 129 93 16 36 26 46 35 39 58 -49 -19 -201 -123 -245 -90 -38 -201 14 -255
118 -31 60 -25 94 23 142 l42 41 8 -38 c4 -21 14 -50 22 -65z"/>
<path d="M4265 5091 c-114 -29 -208 -148 -236 -297 -6 -32 -9 -100 -6 -149 12
-212 123 -347 282 -346 126 1 219 76 271 218 26 70 29 90 29 198 0 135 -19
199 -78 277 -58 75 -178 121 -262 99z m206 -160 c33 -33 37 -67 14 -111 -21
-41 -74 -42 -104 -4 -28 35 -28 97 -1 124 28 28 57 25 91 -9z m-266 -427 c32
-42 60 -57 103 -56 50 2 98 43 119 102 10 28 23 50 29 50 17 0 63 -56 70 -85
8 -31 -26 -94 -70 -133 -20 -17 -62 -39 -93 -48 -110 -32 -213 18 -268 131
l-27 55 19 31 c11 17 33 39 49 50 l29 19 7 -41 c4 -23 19 -56 33 -75z"/>
<path d="M3300 4289 c0 -5 5 -7 10 -4 6 3 10 8 10 11 0 2 -4 4 -10 4 -5 0 -10
-5 -10 -11z"/>
<path d="M3380 4100 c-92 -8 -150 -24 -182 -49 -21 -18 -23 -27 -23 -113 0
-86 3 -98 36 -168 20 -41 53 -94 73 -117 114 -131 333 -132 451 -1 63 69 98
158 103 260 4 69 1 93 -11 112 -36 54 -259 92 -447 76z m343 -59 c74 -24 87
-40 87 -109 -1 -135 -101 -297 -206 -333 -59 -20 -161 -16 -209 9 -83 42 -149
139 -180 260 -15 57 -15 88 1 143 11 40 113 59 294 55 114 -3 160 -9 213 -25z"/>
<path d="M5324 1443 c-21 -86 -91 -161 -204 -218 -76 -38 -87 -55 -23 -35 84
27 181 98 210 154 22 42 43 126 32 126 -5 0 -12 -12 -15 -27z"/>
<path d="M2318 1922 c-31 -26 -55 -48 -53 -51 6 -5 40 19 90 63 59 52 29 42
-37 -12z"/>
</g>
</svg>
